<?xml version="1.0" encoding="utf-8"?>
<svg xmlns="http://www.w3.org/2000/svg" height="48" width="48" viewBox="0 0 48 48">
  <g>
    <ellipse cy="24" cx="24" ry="24" rx="24" fill="#2fbf71" />
    <path id="path1" transform="rotate(0,24,24) translate(13.4211710445745,8) scale(1.00003093576763,1.00003093576763)  " fill="#FCFCFC" d="M8.7295617,8.8140109C8.4315685,8.8140111 8.2045606,8.868012 8.1205596,8.9580085 7.9555644,9.1340184 7.9965652,9.6970069 8.0165542,9.9670115L8.0255574,10.086015C8.2105573,12.906007,8.21956,21.103014,8.21956,21.451021L8.2215589,23.994021 6.487542,22.133013C5.7485336,21.340014 4.8225108,20.557009 4.5055054,20.457018 4.3675028,20.44002 3.8795048,20.591021 3.7505053,20.809008 3.6894997,20.91202 3.7845024,21.163012 3.9915062,21.448015 5.3625268,23.329013 7.7395581,27.865008 8.0795587,28.519015 8.5465606,29.135013 9.4655794,29.999011 10.058589,29.999011L16.39968,29.999011C17.376683,29.27901 18.305695,28.47301 18.462696,28.203021 19.032711,27.081012 19.287703,24.30202 19.095715,21.295015 19.026715,21.071016 18.487706,20.525011 18.2417,20.472017 17.442693,20.592012 16.972685,19.845018 16.628671,19.303011 16.443671,19.012011 16.123675,18.508013 15.906661,18.48102 15.305655,18.511019 14.817657,18.207018 14.385644,17.936022 13.92264,17.646013 13.622633,17.474016 13.343623,17.548021 12.062615,17.887011 10.832602,17.888018 10.758596,17.886019L9.7755808,17.883013 9.6635798,9.5810099C9.6655787,9.5060127 9.6705841,9.2060094 9.5005835,9.0300143 9.3285688,8.8510137 8.9865688,8.8140111 8.7295617,8.8140109z M8.7295617,6.8140108C9.9245847,6.8140109 10.610599,7.2850193 10.975594,7.6780097 11.726611,8.4910131 11.669604,9.5290077 11.661608,9.6440134L11.747608,15.817018C12.076607,15.777009 12.455625,15.714021 12.83263,15.615006 13.967639,15.317018 14.858658,15.873017 15.447655,16.242021 15.591654,16.332018 15.808668,16.468019 15.88867,16.491014 17.136689,16.41202 17.883692,17.548021 18.316697,18.23102 18.367693,18.311022 18.428698,18.407015 18.482701,18.487017 18.924708,18.539019 19.384705,18.754015 19.834723,19.12401 20.382719,19.576021 21.040734,20.381014 21.091729,21.168016 21.174738,22.475008 21.360745,26.912021 20.242718,29.115008 19.811713,29.961017 18.04669,31.284015 17.307681,31.813022L17.045684,31.999011 10.058589,31.999011C8.1875619,31.999011,6.5955452,29.880023,6.4205397,29.638019L6.3415288,29.51102C6.3155273,29.461017 3.7335068,24.490008 2.3754868,22.625017 1.2884662,21.13402 1.8464724,20.031008 2.1364848,19.626009 2.8294874,18.661013 4.2594997,18.283022 5.1035205,18.549013 5.4465274,18.657015 5.8325342,18.892015 6.2105302,19.173021 6.194539,16.461016 6.1505316,12.067018 6.029528,10.217011L6.0215324,10.114014C5.9785322,9.5180061 5.8975223,8.4120183 6.6555437,7.5960086 7.1375445,7.0780185 7.8355521,6.8140109 8.7295617,6.8140108z M16.676998,4.0320094L18.105,5.433009 14.686996,8.9180079 13.258994,7.5180081z M1.4269997,4.0220058L4.8449982,7.5080044 3.4169986,8.908004 0,5.4230053z M7.9870037,0L9.9870037,0 9.9870037,4.9300077 7.9870037,4.9300077z" />
  </g>
</svg>